<svg width="2214" height="2214" xmlns="http://www.w3.org/2000/svg" xmlns:xlink="http://www.w3.org/1999/xlink" overflow="hidden"><defs><clipPath id="clip0"><rect x="1026" y="83" width="2214" height="2214"/></clipPath></defs><g clip-path="url(#clip0)" transform="translate(-1026 -83)"><path d="M1396.67 2294.5C1193.34 2294.5 1028.5 2129.66 1028.5 1926.33L1028.5 453.674C1028.5 250.337 1193.34 85.5002 1396.67 85.5002L2869.32 85.5002C3072.66 85.5002 3237.5 250.337 3237.5 453.674L3237.5 1926.33C3237.5 2129.66 3072.66 2294.5 2869.32 2294.5Z" stroke="#000000" stroke-width="4.58333" stroke-miterlimit="8" fill="#FE92B1" fill-rule="evenodd"/><rect x="2237.5" y="1136.5" width="489" height="141" stroke="#000000" stroke-width="4.58333" stroke-miterlimit="8"/><path d="M1551.76 2142.97C1326.49 1211.15 1329.54 1209.29 1551.76 275.602 1937.48 273.734 2323.29 271.867 2709 270 2199.72 1209.29 2196.68 1214.89 2704.34 2150.44 2318.63 2154.73 1937.48 2138.68 1551.76 2142.97Z" stroke="#000000" stroke-width="27.5" stroke-miterlimit="8" fill="#FFFFFF" fill-rule="evenodd"/><rect x="2691.5" y="841.5" width="142" height="730" stroke="#000000" stroke-width="4.58333" stroke-miterlimit="8"/><path d="M13.75-7.02001e-06 13.7503 638.125-13.7497 638.125-13.75 7.02001e-06ZM41.2503 624.375 0.000360892 706.875-41.2497 624.375Z" transform="matrix(-1.83697e-16 -1 -1 1.83697e-16 2191.87 1210)"/><path d="M74.5001 31.5C105.542-42.0001 226.604 31.5 74.5001 126-77.6043 31.5 43.4584-42.0001 74.5001 31.5Z" stroke="#000000" stroke-width="4.58333" stroke-miterlimit="8" fill-rule="evenodd" transform="matrix(-1.83697e-16 -1 -1 1.83697e-16 1582.5 1285.5)"/><path d="M2122 1216.63 2200.75 1136" stroke="#000000" stroke-width="27.5" stroke-miterlimit="8" fill="none" fill-rule="evenodd"/><path d="M2186 1216.63 2264.75 1136" stroke="#000000" stroke-width="27.5" stroke-miterlimit="8" fill="none" fill-rule="evenodd"/><path d="M0 0 80.6252 78.75" stroke="#000000" stroke-width="27.5" stroke-miterlimit="8" fill="none" fill-rule="evenodd" transform="matrix(1.83697e-16 1 1 -1.83697e-16 2118 1200)"/><path d="M0 0 80.6252 78.75" stroke="#000000" stroke-width="27.5" stroke-miterlimit="8" fill="none" fill-rule="evenodd" transform="matrix(1.83697e-16 1 1 -1.83697e-16 2183 1200)"/></g></svg>